{
    "asset" : {
        "generator" : "Khronos glTF Blender I/O v1.6.16",
        "version" : "2.0"
    },
    "scene" : 0,
    "scenes" : [
        {
            "name" : "Scene",
            "nodes" : [
                0
            ]
        }
    ],
    "nodes" : [
        {
            "mesh" : 0,
            "name" : "Pointer",
            "rotation" : [
                0.7071068286895752,
                0,
                0,
                0.7071068286895752
            ],
            "translation" : [
                -56.17028045654297,
                -44.14708709716797,
                -6.448132514953613
            ]
        }
    ],
    "materials" : [
        {
            "doubleSided" : true,
            "name" : "Material.001",
            "pbrMetallicRoughness" : {
                "baseColorFactor" : [
                    0,
                    0,
                    0,
                    1
                ],
                "metallicFactor" : 0,
                "roughnessFactor" : 0.4000000059604645
            }
        },
        {
            "doubleSided" : true,
            "name" : "Material.002",
            "pbrMetallicRoughness" : {
                "baseColorFactor" : [
                    0.800000011920929,
                    0.800000011920929,
                    0.800000011920929,
                    1
                ],
                "metallicFactor" : 0,
                "roughnessFactor" : 0.5
            }
        }
    ],
    "meshes" : [
        {
            "name" : "Pointer",
            "primitives" : [
                {
                    "attributes" : {
                        "POSITION" : 0,
                        "NORMAL" : 1
                    },
                    "indices" : 2,
                    "material" : 0
                },
                {
                    "attributes" : {
                        "POSITION" : 3,
                        "NORMAL" : 4
                    },
                    "indices" : 5,
                    "material" : 1
                }
            ]
        }
    ],
    "accessors" : [
        {
            "bufferView" : 0,
            "componentType" : 5126,
            "count" : 319,
            "max" : [
                98.35010528564453,
                11.430000305175781,
                0
            ],
            "min" : [
                0,
                1.2699998617172241,
                -126.98075103759766
            ],
            "type" : "VEC3"
        },
        {
            "bufferView" : 1,
            "componentType" : 5126,
            "count" : 319,
            "type" : "VEC3"
        },
        {
            "bufferView" : 2,
            "componentType" : 5123,
            "count" : 492,
            "type" : "SCALAR"
        },
        {
            "bufferView" : 3,
            "componentType" : 5126,
            "count" : 443,
            "max" : [
                92.75465393066406,
                12.699999809265137,
                -5.332350730895996
            ],
            "min" : [
                5.544386863708496,
                0,
                -121.5567398071289
            ],
            "type" : "VEC3"
        },
        {
            "bufferView" : 4,
            "componentType" : 5126,
            "count" : 443,
            "type" : "VEC3"
        },
        {
            "bufferView" : 5,
            "componentType" : 5123,
            "count" : 672,
            "type" : "SCALAR"
        }
    ],
    "bufferViews" : [
        {
            "buffer" : 0,
            "byteLength" : 3828,
            "byteOffset" : 0
        },
        {
            "buffer" : 0,
            "byteLength" : 3828,
            "byteOffset" : 3828
        },
        {
            "buffer" : 0,
            "byteLength" : 984,
            "byteOffset" : 7656
        },
        {
            "buffer" : 0,
            "byteLength" : 5316,
            "byteOffset" : 8640
        },
        {
            "buffer" : 0,
            "byteLength" : 5316,
            "byteOffset" : 13956
        },
        {
            "buffer" : 0,
            "byteLength" : 1344,
            "byteOffset" : 19272
        }
    ],
    "buffers" : [
        {
            "byteLength" : 20616,
            "uri" : "data:application/octet-stream;base64,"
        }
    ]
}
